<svg id="fb" xmlns="http://www.w3.org/2000/svg" width="58.777" height="58.777" viewBox="0 0 58.777 58.777">
  <path id="fb-2" data-name="fb" d="M29.276,58.777h0Zm.207,0h0Zm-.3,0h0Zm.392,0h0Zm-.479,0h0Zm.573,0h0Zm.095,0h0Zm-.778,0h0Zm.873,0h0Zm-.965,0h0Zm1.059,0h0Zm-1.146,0h0Zm-.108,0h0Zm1.348,0h0Zm-1.443,0h0Zm1.537,0h0Zm.094,0h0Zm-1.718,0h0Zm-.083,0h0Zm1.9,0h0Zm.094,0h0Zm-2.109,0h0Zm-.086,0h0Zm2.289,0h0Zm-2.374,0,.041,0h-.041Zm2.468,0h-.032l.041,0Zm-2.586-.006.044,0h-.011Zm2.68,0H30.7l.044,0-.033,0Zm-2.765-.006.045,0h-.045Zm2.859,0h-.021l.045,0Zm-2.942-.005.046,0h-.046Zm3.036,0h-.032l.046,0Zm.094,0-.042,0,.037,0,.043,0Zm-3.206,0,.037,0-.042,0-.039,0,.043,0Zm3.3-.006h-.018l.047,0Zm-3.426,0,.047,0H27.69Zm-.083,0,.046,0-.029,0h-.017Zm3.6,0-.029,0,.046,0h-.017ZM27.5,58.718l.042,0-.039,0-.039,0,.036,0Zm3.775,0-.039,0,.042,0,.036,0-.039,0Zm.093-.006h-.014l.044,0-.03,0Zm-3.99,0,.044,0h-.014ZM27.3,58.7l.044,0-.024,0H27.3Zm4.166,0-.024,0,.044,0ZM27.213,58.7l.04,0-.031,0Zm4.342,0-.031,0,.04,0h-.009ZM27.1,58.69l.035,0h-.008Zm4.546,0H31.64l.035,0Zm.093-.007h-.017l.036,0Zm-4.725,0,.036,0h-.017l-.019,0Zm-.083-.007.03,0-.021,0Zm4.9,0-.021,0,.03,0Zm-4.993-.008h0Zm5.086,0h0Zm.093-.008h-.008l.021,0h-.013Zm-5.277,0,.021,0h-.021Zm-.086-.008h0Zm5.456,0h0ZM24.8,58.42a29.389,29.389,0,1,1,9.184,0V37.884h6.848l1.3-8.5H33.981V23.876c0-2.324,1.139-4.59,4.789-4.59h3.706V12.054A45.193,45.193,0,0,0,35.9,11.48c-6.713,0-11.1,4.069-11.1,11.434v6.475H17.335v8.5H24.8Z" fill="#fff" fill-rule="evenodd"/>
</svg>
