<svg id="instagram" xmlns="http://www.w3.org/2000/svg" width="58.777" height="58.777" viewBox="0 0 58.777 58.777">
  <path id="instagram-2" data-name="instagram" d="M29.389,0A29.389,29.389,0,1,1,0,29.389,29.4,29.4,0,0,1,29.389,0Zm0,11.021c-4.988,0-5.614.021-7.573.111a13.483,13.483,0,0,0-4.459.854,9.393,9.393,0,0,0-5.372,5.372,13.485,13.485,0,0,0-.854,4.459c-.089,1.959-.11,2.585-.11,7.573s.021,5.614.11,7.573a13.485,13.485,0,0,0,.854,4.459,9.393,9.393,0,0,0,5.372,5.372,13.487,13.487,0,0,0,4.459.854c1.959.089,2.585.111,7.573.111s5.614-.021,7.573-.111a13.485,13.485,0,0,0,4.459-.854,9.392,9.392,0,0,0,5.372-5.372,13.485,13.485,0,0,0,.854-4.459c.089-1.959.111-2.585.111-7.573s-.021-5.614-.111-7.573a13.485,13.485,0,0,0-.854-4.459,9.393,9.393,0,0,0-5.372-5.372,13.482,13.482,0,0,0-4.459-.854C35,11.042,34.377,11.021,29.389,11.021Zm0,3.31c4.9,0,5.485.019,7.422.107a10.164,10.164,0,0,1,3.411.632,6.083,6.083,0,0,1,3.486,3.486,10.161,10.161,0,0,1,.632,3.411c.088,1.937.107,2.518.107,7.422s-.019,5.485-.107,7.422a10.161,10.161,0,0,1-.632,3.411,6.083,6.083,0,0,1-3.486,3.486,10.161,10.161,0,0,1-3.411.632c-1.937.088-2.517.107-7.422.107s-5.486-.019-7.422-.107a10.161,10.161,0,0,1-3.411-.632,6.082,6.082,0,0,1-3.486-3.486,10.163,10.163,0,0,1-.633-3.411c-.088-1.937-.107-2.518-.107-7.422s.019-5.485.107-7.422a10.163,10.163,0,0,1,.633-3.411,6.082,6.082,0,0,1,3.486-3.486,10.164,10.164,0,0,1,3.411-.632C23.9,14.349,24.484,14.33,29.389,14.33Zm0,5.626a9.432,9.432,0,1,0,9.432,9.432,9.432,9.432,0,0,0-9.432-9.432Zm0,15.555a6.123,6.123,0,1,1,6.123-6.123A6.123,6.123,0,0,1,29.389,35.511ZM41.4,19.584a2.2,2.2,0,1,1-2.2-2.2A2.2,2.2,0,0,1,41.4,19.584Z" fill="#fff" fill-rule="evenodd"/>
</svg>
