<svg id="mail" xmlns="http://www.w3.org/2000/svg" width="58.777" height="58.777" viewBox="0 0 58.777 58.777">
  <path id="Path_3901" data-name="Path 3901" d="M29.389,58.777h0A29.389,29.389,0,0,0,58.777,29.389h0A29.389,29.389,0,0,0,29.389,0h0A29.389,29.389,0,0,0,0,29.389H0A29.389,29.389,0,0,0,29.389,58.777Z" fill="#fff" fill-rule="evenodd"/>
  <path id="Path_3902" data-name="Path 3902" d="M18,25.765V42.407a1.581,1.581,0,0,0,1.576,1.639H45.548a1.587,1.587,0,0,0,1.576-1.639V25.765A1.6,1.6,0,0,0,45.548,24H19.576A1.588,1.588,0,0,0,18,25.765m2.395,1.45a.58.58,0,0,1,.63-.63c.24,0,9.677,5.98,10.249,6.331l1.477.919c.468-.314.939-.582,1.424-.907.991-.633,9.805-6.342,10.048-6.342a.579.579,0,0,1,.63.63c0,.425-.818.847-1.351,1.172-3.347,2.04-6.694,4.264-10.008,6.38-.193.131-.568.41-.848.368-.313-.048-9.916-6.218-11.664-7.246-.263-.155-.588-.3-.588-.674" transform="translate(-3.306 -4.407)" fill="#273755" fill-rule="evenodd"/>
</svg>
