<svg xmlns="http://www.w3.org/2000/svg" width="105.167" height="97.799" viewBox="0 0 105.167 97.799">
  <path id="gaming" d="M105.231,78.765a32.964,32.964,0,0,0-.133-3.515C103.869,55.456,94.724,46.97,94.724,46.97l0,0a17.213,17.213,0,0,0-12.4-5.26,17,17,0,0,0-7.393,1.714l-.033-.018s-.245.137-.652.357c-.158.084-.328.148-.484.24l-.008,0a.192.192,0,0,1-.023.015c-.035.02-.066.043-.1.066A46.309,46.309,0,0,1,63.264,47.9c-3.095.739-3.393-1.767-3.409-2.437v-1.28c-.112-1.372-.827-3.916-4.427-4.481V23.748s.008,0,.013,0l.018-5.57s-.4-5.25,1.9-7.342c.074-.074.142-.15.216-.217a.942.942,0,0,1,.082-.081c.016-.01.03-.01.04-.021a7.1,7.1,0,0,1,4.667-1.54c.306.015,5.387.4,5.387,7.421v9.737h.015A9.536,9.536,0,0,0,86.6,28.153c.016-.041.036-.056.051-.1a3.89,3.89,0,0,0,.194-1.6c0-.007,0-.015,0-.025,0-.026-.016-.051-.016-.079a3.161,3.161,0,0,0-.137-.679c-.026-.064-.041-.122-.072-.181-.087-.189-.163-.316-.163-.316l-.035.02a2.152,2.152,0,0,0-3.931.7c-.023.074-.056.161-.087.245h-.025s0,.046,0,.066c-.379,1.066-1.117,2.831-1.991,3.31a3.941,3.941,0,0,1-4.088.55,6.094,6.094,0,0,1-3.254-5.354c0-.17.035-.324.048-.489h-.048V12.591a9.727,9.727,0,0,0-1.938-5.1c-.035-.054-.074-.107-.112-.161-.17-.237-.326-.453-.453-.618H70.5a11.476,11.476,0,0,0-19.934,3.462c-.283,1.1-.683,3.692-.683,9.593V39.616a4.385,4.385,0,0,0-4.427,4.575v1.024c-.076,1.214-.7,3.627-4.46,2.576A35,35,0,0,1,32.572,44.4c-.222-.143-.451-.272-.682-.4l-.28-.173v.015a17.006,17.006,0,0,0-8.23-2.129A17.177,17.177,0,0,0,13.536,44.8l-.007,0s-.331.224-.85.646a17.565,17.565,0,0,0-2.806,2.79c-3.45,4-8.235,11.914-9.445,25.574A31.571,31.571,0,0,0,.12,80.257c0,.082-.008.16-.008.24H.13C.68,89.551,5.264,97.1,12.591,99.41c6.407,2.016,13.378-.463,18.8-5.875l0,.015.135-.153c.237-.236.473-.474.7-.723a31.024,31.024,0,0,1,9.081-6.2c.158-.066.357-.148.613-.24.041-.021.087-.031.128-.051a31.3,31.3,0,0,1,22.474.771,41.888,41.888,0,0,1,9.742,6.42c.008.012.018.016.026.026.522.464.827.761.827.761L75.1,94.1c5.231,4.641,11.66,6.7,17.617,4.821,7.606-2.4,12.256-10.432,12.507-19.943a.03.03,0,0,1,.016-.01C105.236,78.894,105.231,78.831,105.231,78.765ZM33.4,69.869c.092,2.4-1.9,2.823-2.92,2.884h-1.12a2.026,2.026,0,0,0-2.271,2.024v1.337c0,2.436-1.624,2.885-2.52,2.95H23.278a2.413,2.413,0,0,1-2.395-2.614V74.725a1.972,1.972,0,0,0-2.131-1.971h-.7c-2.828.021-3.393-1.5-3.482-2.414v-.688a3.014,3.014,0,0,1,3.254-3.1h.879c1.794-.01,2.128-1.158,2.176-1.8V63.177A2.866,2.866,0,0,1,24,60.241a2.919,2.919,0,0,1,3.086,2.979V64.6a1.922,1.922,0,0,0,2.19,1.953h1.046a2.9,2.9,0,0,1,3.076,3.1v.216Z" transform="translate(-0.074 -2.308)" fill="#25385c"/>
</svg>
