<svg xmlns="http://www.w3.org/2000/svg" width="97.799" height="97.799" viewBox="0 0 97.799 97.799">
  <path id="gamingsystem" d="M96.306,33.435H68.363V5.493A3.3,3.3,0,0,0,64.871,2H36.928a3.3,3.3,0,0,0-3.493,3.493V33.435H5.493A3.3,3.3,0,0,0,2,36.928V64.871a3.3,3.3,0,0,0,3.493,3.493H33.435V96.306A3.3,3.3,0,0,0,36.928,99.8H64.871a3.3,3.3,0,0,0,3.493-3.493V68.363H96.306A3.3,3.3,0,0,0,99.8,64.871V36.928A3.3,3.3,0,0,0,96.306,33.435ZM22.957,53.344a3.668,3.668,0,0,1-1.746,3.144,2.617,2.617,0,0,1-1.746.349,4.964,4.964,0,0,1-2.1-.7l-3.493-2.445a4.312,4.312,0,0,1-1.4-2.794,4.312,4.312,0,0,1,1.4-2.794l3.493-2.445a3.173,3.173,0,0,1,3.493,0,2.927,2.927,0,0,1,2.1,2.794ZM56.139,84.43l-2.445,3.493a4.312,4.312,0,0,1-2.794,1.4,4.312,4.312,0,0,1-2.794-1.4L45.66,84.43a3.173,3.173,0,0,1,0-3.493c.7-1.048,1.746-2.1,2.794-2.1H53a3.668,3.668,0,0,1,3.144,1.746A3.77,3.77,0,0,1,56.139,84.43Zm0-63.22a3.111,3.111,0,0,1-2.794,1.746H48.8A3.668,3.668,0,0,1,45.66,21.21a3.173,3.173,0,0,1,0-3.493l2.445-3.493a3.59,3.59,0,0,1,5.938,0l2.445,3.493A4.23,4.23,0,0,1,56.139,21.21ZM87.923,53.694,84.43,56.139a4.964,4.964,0,0,1-2.1.7,3.149,3.149,0,0,1-1.746-.349,4.168,4.168,0,0,1-1.746-3.144V48.8a3.668,3.668,0,0,1,1.746-3.144,3.173,3.173,0,0,1,3.493,0l3.493,2.445a3.177,3.177,0,0,1,1.4,2.794A3.966,3.966,0,0,1,87.923,53.694Z" transform="translate(-2 -2)" fill="#25385c"/>
</svg>
