<svg xmlns="http://www.w3.org/2000/svg" width="92.941" height="93" viewBox="0 0 92.941 93">
  <path id="Wallet" d="M85.647,25.282H18.729c-5.576,0-7.435-2.788-7.435-4.647l74.352-6.971V6.694A4.9,4.9,0,0,0,80.07,2.047L9.9,14.594A9.452,9.452,0,0,0,2,23.888V85.693a9.321,9.321,0,0,0,9.294,9.294H85.647a9.321,9.321,0,0,0,9.294-9.294V34.576A9.321,9.321,0,0,0,85.647,25.282ZM78.676,67.105a6.971,6.971,0,1,1,6.971-6.971A7.147,7.147,0,0,1,78.676,67.105Z" transform="translate(-2 -1.987)" fill="#25385c"/>
</svg>
