<svg id="WhiteLabel" xmlns="http://www.w3.org/2000/svg" width="93" height="93" viewBox="0 0 93 93">
  <g id="Core">
    <g id="shopping-cart">
      <path id="Shape" d="M27.9,74.4a9.3,9.3,0,1,0,9.3,9.3,9.327,9.327,0,0,0-9.3-9.3ZM0,0V9.3H9.3L26.04,44.64,19.53,55.8a16.521,16.521,0,0,0-.93,4.65,9.327,9.327,0,0,0,9.3,9.3H83.7v-9.3H29.76a1,1,0,0,1-.93-.93v-.465l4.185-7.905h34.41A8.48,8.48,0,0,0,75.33,46.5L92.07,16.275A2.56,2.56,0,0,0,93,13.95,4.393,4.393,0,0,0,88.35,9.3H19.53L15.345,0ZM74.4,74.4a9.3,9.3,0,1,0,9.3,9.3,9.327,9.327,0,0,0-9.3-9.3Z" fill="#25385c" fill-rule="evenodd"/>
    </g>
  </g>
</svg>
